name C:\Users\u0101727\Documents\MyRepositories\paper-ad\predictivesimulations_2d/Results/PredSim_2D/IK_c8.mot
datacolumns 11
datarows 38
range 1.27595321 1.63091764
endheader
time	pelvis_tilt	pelvis_tx	pelvis_ty	hip_flexion_l	hip_flexion_r	knee_angle_l	knee_angle_r	ankle_angle_l	ankle_angle_r	lumbar_extension	
          1.27595321	        -15.12864069	          1.69369492	          0.90061113	         33.21772881	         10.39631086	        -37.56315398	         -7.29355036	         15.70410363	         11.30319414	          9.45302748	
          1.28554685	        -15.12794969	          1.70568258	          0.89975272	         34.18615040	          9.62064422	        -36.09029677	         -7.34139090	         15.98976314	         11.31369751	          9.41316204	
          1.29514048	        -15.12833679	          1.71772575	          0.89883631	         35.09343426	          8.86261300	        -34.50081761	         -7.42493384	         16.19451876	         11.31196422	          9.37654840	
          1.30473411	        -15.13019411	          1.72983089	          0.89786074	         35.93611853	          8.12116422	        -32.80245054	         -7.54311063	         16.32748981	         11.30160191	          9.34349515	
          1.31432775	        -15.13384476	          1.74200615	          0.89682486	         36.70962267	          7.39594828	        -31.00662969	         -7.69620571	         16.39746375	         11.28342586	          9.31438874	
          1.32392138	        -15.13935690	          1.75426350	          0.89573132	         37.40724355	          6.68786637	        -29.13955719	         -7.88789700	         16.41258206	         11.25581429	          9.28981860	
          1.33351501	        -15.14675727	          1.76662122	          0.89459256	         38.01603324	          5.99894824	        -27.23545224	         -8.12442766	         16.38013848	         11.21272044	          9.27108889	
          1.34310865	        -15.15606568	          1.77910082	          0.89343028	         38.52021293	          5.33235426	        -25.32650730	         -8.41292794	         16.30652512	         11.14172766	          9.25992086	
          1.35270228	        -15.16696232	          1.79172108	          0.89226702	         38.91035234	          4.69249950	        -23.44056559	         -8.76188165	         16.19712987	         11.02655442	          9.25750211	
          1.36229591	        -15.17865012	          1.80449661	          0.89112073	         39.18630922	          4.08465112	        -21.59950588	         -9.18115375	         16.05607476	         10.85066937	          9.26423903	
          1.37188955	        -15.18991666	          1.81744026	          0.89000574	         39.35497268	          3.51409503	        -19.82495508	         -9.68106166	         15.88595623	         10.59980228	          9.28005944	
          1.38148318	        -15.19954301	          1.83056590	          0.88893418	         39.42356086	          2.98571096	        -18.13171918	        -10.27127581	         15.68796848	         10.26111219	          9.30505517	
          1.39107681	        -15.20638636	          1.84388798	          0.88791525	         39.39889139	          2.50393120	        -16.53156984	        -10.96036094	         15.46200632	          9.82244702	          9.33946509	
          1.40067044	        -15.20919232	          1.85742069	          0.88695421	         39.28855542	          2.07337133	        -15.04154219	        -11.75731416	         15.20678796	          9.27295623	          9.38342834	
          1.41026408	        -15.20669775	          1.87117845	          0.88605213	         39.09759205	          1.69954989	        -13.67618237	        -12.67242391	         14.92029975	          8.60166654	          9.43723733	
          1.41985771	        -15.19749953	          1.88517483	          0.88520472	         38.83078508	          1.38837880	        -12.45538625	        -13.71662094	         14.59966118	          7.79814340	          9.50114502	
          1.42945134	        -15.18004132	          1.89942159	          0.88440083	         38.49349482	          1.14551565	        -11.40794741	        -14.90011020	         14.24107282	          6.85488255	          9.57530125	
          1.43904498	        -15.15288196	          1.91392982	          0.88362135	         38.08605163	          0.97574870	        -10.56473274	        -16.23218351	         13.84017051	          5.77191064	          9.66029516	
          1.44863861	        -15.11483100	          1.92870777	          0.88283477	         37.60141554	          0.88200127	         -9.95940154	        -17.72581838	         13.39196012	          4.57158821	          9.75718795	
          1.45823224	        -15.06573427	          1.94374916	          0.88199722	         37.02160469	          0.86700108	         -9.64010037	        -19.38695841	         12.89164836	          3.26745019	          9.86712314	
          1.46782588	        -15.00814844	          1.95903695	          0.88113210	         36.27854538	          0.93798253	         -9.72739422	        -21.21248502	         12.33715948	          1.83950933	          9.99407347	
          1.47741951	        -14.95028535	          1.97438527	          0.88036636	         35.41537908	          1.09957764	        -10.04158536	        -23.18381722	         11.76783185	          0.37312917	         10.12861148	
          1.48701314	        -14.90312199	          1.98945339	          0.87992955	         34.55729928	          1.37863961	        -10.32171823	        -25.20850356	         11.21761636	         -0.91019039	         10.24749544	
          1.49660678	        -14.87522074	          2.00399419	          0.88008347	         33.74156385	          1.80343512	        -10.57994478	        -27.14631990	         10.68638504	         -1.91244286	         10.33681036	
          1.50620041	        -14.86892129	          2.01794471	          0.88098394	         32.97062904	          2.36987002	        -10.81114418	        -28.93464496	         10.18879660	         -2.66298152	         10.39541383	
          1.51579404	        -14.87953235	          2.03138823	          0.88259010	         32.22596297	          3.06116025	        -11.00332234	        -30.59419928	          9.74113898	         -3.17124317	         10.42944797	
          1.52538768	        -14.90046146	          2.04444898	          0.88469211	         31.48644706	          3.85676323	        -11.14755611	        -32.15409144	          9.35490539	         -3.44998069	         10.44593819	
          1.53498131	        -14.92634477	          2.05723444	          0.88705735	         30.73527734	          4.74112141	        -11.23702964	        -33.63190569	          9.03636264	         -3.51475751	         10.45019804	
          1.54457494	        -14.95374349	          2.06981885	          0.88950307	         29.96300753	          5.70220757	        -11.26982576	        -35.03611685	          8.78712554	         -3.38059959	         10.44542175	
          1.55416858	        -14.98076370	          2.08224919	          0.89190565	         29.16511212	          6.73101490	        -11.24638579	        -36.36805177	          8.60616704	         -3.06381104	         10.43336654	
          1.56376221	        -15.00644412	          2.09455552	          0.89418588	         28.34004797	          7.82014365	        -11.16871753	        -37.62459519	          8.49084365	         -2.58112849	         10.41504258	
          1.57335584	        -15.03029442	          2.10675815	          0.89629336	         27.48819049	          8.96341191	        -11.04030516	        -38.80086193	          8.43741015	         -1.94942143	         10.39106470	
          1.58294948	        -15.05204681	          2.11887215	          0.89819566	         26.61118905	         10.15526810	        -10.86599641	        -39.89076640	          8.44131852	         -1.18564097	         10.36188383	
          1.59254311	        -15.07153026	          2.13090993	          0.89987181	         25.71163955	         11.39035912	        -10.65182355	        -40.88753789	          8.49742408	         -0.30695148	         10.32790680	
          1.60213674	        -15.08862163	          2.14288239	          0.90130916	         24.79284844	         12.66326540	        -10.40480777	        -41.78400069	          8.60014056	          0.66925712	         10.28955028	
          1.61173037	        -15.10323250	          2.15479902	          0.90250285	         23.85879398	         13.96861986	        -10.13296870	        -42.57256703	          8.74365131	          1.72541680	         10.24720512	
          1.62132401	        -15.11534811	          2.16666744	          0.90345613	         22.91390363	         15.30141394	         -9.84409516	        -43.24505241	          8.92208784	          2.84385689	         10.20119086	
          1.63091764	        -15.12509250	          2.17849497	          0.90417962	         21.96206847	         16.65565289	         -9.54524098	        -43.79393382	          9.12895102	          4.00676461	         10.15198607	
